# xmcd
#
# Track frame offsets: 
#        150
#        12492
#        33537
#        60838
#        76175
#        95385
#        116693
#        133949
#        152192
#        173427
#        202139
#        215482
#        223651
#        246855
#
# Disc length: 3603 seconds
#
# Revision: 0
# Processed by: cddbd v1.5.2PL0 Copyright (c) Steve Scherf et al.
# Submitted via: ExactAudioCopyFreeDBPlugin 1.0
#
DISCID=c20e110e
DTITLE=Les Nubians - Nu Revolution
DYEAR=2011
DGENRE=Hip-Hop
TTITLE0=Nu Queens Intro
TTITLE1=Liberte
TTITLE2=Nu Revolution
TTITLE3=Fraicheur Souhaitee
TTITLE4=Nu Soul Makossa
TTITLE5=Les Gens
TTITLE6=Afrodance
TTITLE7=Deja Vous
TTITLE8=Veuillez Veiller Sur Vos Reves
TTITLE9=Vogue Naire
TTITLE10=Femme Polyandre
TTITLE11=Je M'En Occupe
TTITLE12=Mbengu
TTITLE13=Africa For The Future
EXTD=
EXTT0=
EXTT1=
EXTT2=
EXTT3=
EXTT4=
EXTT5=
EXTT6=
EXTT7=
EXTT8=
EXTT9=
EXTT10=
EXTT11=
EXTT12=
EXTT13=
PLAYORDER=
